Storyline
 When a gigantic great white shark begins to menace the small island community of Amity, a police chief, a marine scientist and grizzled fisherman set out to stop it.
 
  http://www.imdb.com/title/tt0073195/

Complete name : Jaws 1975 BRRip x264 AAC-UNiQUE.mp4
 Subtitle : English.srt included in folder
 Format : MPEG-4
 Format profile : Base Media
 Codec ID : isom
 File size : 2.20 GiB
 Duration : 2h 3mn
 Overall bit rate mode : Variable
 Overall bit rate : 2 542 Kbps
 Encoded date : UTC 2012-08-04 09:44:14
 
Video
 ID : 1
 Format : AVC
 Format/Info : Advanced Video Codec
 Format profile : High@L4.1
 Format settings, CABAC : Yes
 Format settings, ReFrames : 3 frames
 Codec ID : avc1
 Codec ID/Info : Advanced Video Coding
 Duration : 2h 3mn
 Bit rate mode : Variable
 Bit rate : 2 217 Kbps
 Maximum bit rate : 40.0 Mbps
 Width : 720 pixels
 Height : 304 pixels
 Display aspect ratio : 2.35:1
 Frame rate mode : Constant
 Frame rate : 23.976 fps
 Color space : YUV
 Chroma subsampling : 4:2:0
 Bit depth : 8 bits
 Scan type : Progressive
 Bits/(Pixel*Frame) : 0.422
 Stream size : 1.92 GiB (87%)
 Writing library : x264 core 125 r2208 d9d2288
 
Audio
 ID : 2
 Format : AAC
 Format/Info : Advanced Audio Codec
 Format profile : LC
 Codec ID : 40
 Duration : 2h 3mn
 Bit rate mode : Variable
 Bit rate : 321 Kbps
 Maximum bit rate : 379 Kbps
 Channel(s) : 6 channels
 Channel positions : Front: L C R, Side: L R, LFE
 Sampling rate : 48.0 KHz
 Compression mode : Lossy
 Stream size : 285 MiB (13%)
 Language : English
 Encoded date : UTC 2012-08-04 09:44:57
 
Source : 720p.BluRay.X264-AMIABLE - Thanks!
 
http://www.shotpix.com/images/04616702524450417390.png 
http://www.shotpix.com/images/83426614679605081897.png 
http://www.shotpix.com/images/03200903020231049172.png
